<mxfile host="app.diagrams.net" agent="Mozilla/5.0 (X11; Linux x86_64) AppleWebKit/537.36 (KHTML, like Gecko) Chrome/134.0.0.0 Safari/537.36" version="26.2.8">
  <diagram name="Halaman-1" id="9fGs9Vn8Tkgkwx3WWf9k">
    <mxGraphModel dx="1107" dy="1245" grid="0" gridSize="10" guides="1" tooltips="1" connect="1" arrows="1" fold="1" page="0" pageScale="1" pageWidth="827" pageHeight="1169" math="0" shadow="0">
      <root>
        <mxCell id="0" />
        <mxCell id="1" parent="0" />
        <mxCell id="W_C2Z8PSOMMcqS_Pn6WL-5" value="&lt;p style=&quot;margin:0px;margin-top:6px;text-align:center;&quot;&gt;&lt;b&gt;Auth service&lt;/b&gt;&lt;/p&gt;&lt;hr size=&quot;1&quot; style=&quot;border-style:solid;&quot;&gt;&lt;p style=&quot;margin:0px;margin-left:8px;&quot;&gt;+ Struct Auth Service&lt;/p&gt;&lt;p style=&quot;margin:0px;margin-left:8px;&quot;&gt;- matching check email n pass&lt;/p&gt;&lt;p style=&quot;margin:0px;margin-left:8px;&quot;&gt;- haspassword()&lt;/p&gt;&lt;p style=&quot;margin:0px;margin-left:8px;&quot;&gt;- generateToken()&lt;/p&gt;&lt;p style=&quot;margin:0px;margin-left:8px;&quot;&gt;- generateJWT()&lt;/p&gt;" style="align=left;overflow=fill;html=1;dropTarget=0;whiteSpace=wrap;" vertex="1" parent="1">
          <mxGeometry x="311" y="290" width="179" height="109" as="geometry" />
        </mxCell>
        <mxCell id="W_C2Z8PSOMMcqS_Pn6WL-6" value="" style="shape=component;jettyWidth=8;jettyHeight=4;" vertex="1" parent="W_C2Z8PSOMMcqS_Pn6WL-5">
          <mxGeometry x="1" width="20" height="20" relative="1" as="geometry">
            <mxPoint x="-24" y="4" as="offset" />
          </mxGeometry>
        </mxCell>
        <mxCell id="W_C2Z8PSOMMcqS_Pn6WL-19" style="edgeStyle=none;curved=1;rounded=0;orthogonalLoop=1;jettySize=auto;html=1;fontSize=12;startSize=8;endSize=8;" edge="1" parent="1" source="W_C2Z8PSOMMcqS_Pn6WL-7" target="W_C2Z8PSOMMcqS_Pn6WL-5">
          <mxGeometry relative="1" as="geometry" />
        </mxCell>
        <mxCell id="W_C2Z8PSOMMcqS_Pn6WL-7" value="&lt;p style=&quot;margin: 6px 0px 0px; text-align: center;&quot;&gt;&lt;b&gt;Auth API&lt;/b&gt;&lt;/p&gt;&lt;hr size=&quot;1&quot; style=&quot;border-style:solid;&quot;&gt;&lt;p style=&quot;margin:0px;margin-left:8px;&quot;&gt;+ POST /auth/login&amp;nbsp; &amp;nbsp; &amp;nbsp; &amp;nbsp; → AuthController.login()&lt;/p&gt;&lt;p style=&quot;margin:0px;margin-left:8px;&quot;&gt;+ POST /auth/register&amp;nbsp; &amp;nbsp; &amp;nbsp;→ AuthController.register()&lt;/p&gt;&lt;p style=&quot;margin:0px;margin-left:8px;&quot;&gt;+ POST /auth/logout&amp;nbsp; &amp;nbsp; &amp;nbsp; &amp;nbsp;→ AuthController.logout()&lt;/p&gt;&lt;p style=&quot;margin:0px;margin-left:8px;&quot;&gt;+ GET&amp;nbsp; /auth/profile&amp;nbsp; &amp;nbsp; &amp;nbsp; → AuthController.getProfile()&lt;/p&gt;&lt;p style=&quot;margin:0px;margin-left:8px;&quot;&gt;+ PUT&amp;nbsp; /auth/profile&amp;nbsp; &amp;nbsp; &amp;nbsp; → AuthController.updateProfile()&lt;/p&gt;" style="align=left;overflow=fill;html=1;dropTarget=0;whiteSpace=wrap;" vertex="1" parent="1">
          <mxGeometry x="-154.5" y="274" width="315" height="125" as="geometry" />
        </mxCell>
        <mxCell id="W_C2Z8PSOMMcqS_Pn6WL-8" value="" style="shape=component;jettyWidth=8;jettyHeight=4;" vertex="1" parent="W_C2Z8PSOMMcqS_Pn6WL-7">
          <mxGeometry x="1" width="20" height="20" relative="1" as="geometry">
            <mxPoint x="-24" y="4" as="offset" />
          </mxGeometry>
        </mxCell>
        <mxCell id="W_C2Z8PSOMMcqS_Pn6WL-23" value="" style="edgeStyle=none;curved=1;rounded=0;orthogonalLoop=1;jettySize=auto;html=1;fontSize=12;startSize=8;endSize=8;" edge="1" parent="1" source="W_C2Z8PSOMMcqS_Pn6WL-15" target="W_C2Z8PSOMMcqS_Pn6WL-21">
          <mxGeometry relative="1" as="geometry" />
        </mxCell>
        <mxCell id="W_C2Z8PSOMMcqS_Pn6WL-15" value="&lt;p style=&quot;margin:0px;margin-top:6px;text-align:center;&quot;&gt;&lt;b&gt;Auth Controller&lt;/b&gt;&lt;/p&gt;&lt;hr size=&quot;1&quot; style=&quot;border-style:solid;&quot;&gt;&lt;p style=&quot;margin:0px;margin-left:8px;&quot;&gt;- VerificationController&lt;/p&gt;&lt;p style=&quot;margin:0px;margin-left:8px;&quot;&gt;- LoginController&lt;/p&gt;&lt;p style=&quot;margin:0px;margin-left:8px;&quot;&gt;- RegisterController&lt;/p&gt;&lt;p style=&quot;margin:0px;margin-left:8px;&quot;&gt;- ForgotPassController&lt;/p&gt;&lt;p style=&quot;margin:0px;margin-left:8px;&quot;&gt;- ConfirmPassController&lt;/p&gt;&lt;p style=&quot;margin:0px;margin-left:8px;&quot;&gt;- ResetPassController&lt;/p&gt;" style="align=left;overflow=fill;html=1;dropTarget=0;whiteSpace=wrap;" vertex="1" parent="1">
          <mxGeometry x="298" y="558" width="183" height="127" as="geometry" />
        </mxCell>
        <mxCell id="W_C2Z8PSOMMcqS_Pn6WL-16" value="" style="shape=component;jettyWidth=8;jettyHeight=4;" vertex="1" parent="W_C2Z8PSOMMcqS_Pn6WL-15">
          <mxGeometry x="1" width="20" height="20" relative="1" as="geometry">
            <mxPoint x="-24" y="4" as="offset" />
          </mxGeometry>
        </mxCell>
        <mxCell id="W_C2Z8PSOMMcqS_Pn6WL-20" style="edgeStyle=none;curved=1;rounded=0;orthogonalLoop=1;jettySize=auto;html=1;entryX=0.556;entryY=0.022;entryDx=0;entryDy=0;entryPerimeter=0;fontSize=12;startSize=8;endSize=8;" edge="1" parent="1" source="W_C2Z8PSOMMcqS_Pn6WL-5" target="W_C2Z8PSOMMcqS_Pn6WL-15">
          <mxGeometry relative="1" as="geometry" />
        </mxCell>
        <mxCell id="W_C2Z8PSOMMcqS_Pn6WL-33" value="" style="edgeStyle=none;curved=1;rounded=0;orthogonalLoop=1;jettySize=auto;html=1;fontSize=12;startSize=8;endSize=8;" edge="1" parent="1" source="W_C2Z8PSOMMcqS_Pn6WL-21" target="W_C2Z8PSOMMcqS_Pn6WL-31">
          <mxGeometry relative="1" as="geometry" />
        </mxCell>
        <mxCell id="W_C2Z8PSOMMcqS_Pn6WL-21" value="&lt;p style=&quot;margin:0px;margin-top:6px;text-align:center;&quot;&gt;&lt;b&gt;User Repos&lt;/b&gt;&lt;/p&gt;&lt;hr size=&quot;1&quot; style=&quot;border-style:solid;&quot;&gt;&lt;p style=&quot;margin:0px;margin-left:8px;&quot;&gt;+ UserRepository&lt;/p&gt;&lt;p style=&quot;margin:0px;margin-left:8px;&quot;&gt;- User Database Access&lt;/p&gt;" style="align=left;overflow=fill;html=1;dropTarget=0;whiteSpace=wrap;" vertex="1" parent="1">
          <mxGeometry x="-5" y="558" width="183" height="127" as="geometry" />
        </mxCell>
        <mxCell id="W_C2Z8PSOMMcqS_Pn6WL-22" value="" style="shape=component;jettyWidth=8;jettyHeight=4;" vertex="1" parent="W_C2Z8PSOMMcqS_Pn6WL-21">
          <mxGeometry x="1" width="20" height="20" relative="1" as="geometry">
            <mxPoint x="-24" y="4" as="offset" />
          </mxGeometry>
        </mxCell>
        <mxCell id="W_C2Z8PSOMMcqS_Pn6WL-26" style="edgeStyle=none;curved=1;rounded=0;orthogonalLoop=1;jettySize=auto;html=1;entryX=0.5;entryY=0;entryDx=0;entryDy=0;fontSize=12;startSize=8;endSize=8;" edge="1" parent="1" source="W_C2Z8PSOMMcqS_Pn6WL-24" target="W_C2Z8PSOMMcqS_Pn6WL-7">
          <mxGeometry relative="1" as="geometry" />
        </mxCell>
        <mxCell id="W_C2Z8PSOMMcqS_Pn6WL-24" value="&lt;p style=&quot;margin:0px;margin-top:6px;text-align:center;&quot;&gt;&lt;b&gt;Client&lt;/b&gt;&lt;/p&gt;&lt;hr size=&quot;1&quot; style=&quot;border-style:solid;&quot;&gt;&lt;p style=&quot;margin:0px;margin-left:8px;&quot;&gt;+ Web: React.js &amp;amp; Raiden Go&lt;br&gt;+ Mobile: Flutter&lt;/p&gt;" style="align=left;overflow=fill;html=1;dropTarget=0;whiteSpace=wrap;" vertex="1" parent="1">
          <mxGeometry x="-87" y="-14" width="180" height="90" as="geometry" />
        </mxCell>
        <mxCell id="W_C2Z8PSOMMcqS_Pn6WL-25" value="" style="shape=component;jettyWidth=8;jettyHeight=4;" vertex="1" parent="W_C2Z8PSOMMcqS_Pn6WL-24">
          <mxGeometry x="1" width="20" height="20" relative="1" as="geometry">
            <mxPoint x="-24" y="4" as="offset" />
          </mxGeometry>
        </mxCell>
        <mxCell id="W_C2Z8PSOMMcqS_Pn6WL-31" value="&lt;p style=&quot;margin:0px;margin-top:6px;text-align:center;&quot;&gt;&lt;b&gt;External Auth&lt;/b&gt;&lt;/p&gt;&lt;hr size=&quot;1&quot; style=&quot;border-style:solid;&quot;&gt;&lt;p style=&quot;margin:0px;margin-left:8px;&quot;&gt;+ Supabase&lt;/p&gt;" style="align=left;overflow=fill;html=1;dropTarget=0;whiteSpace=wrap;" vertex="1" parent="1">
          <mxGeometry x="-5" y="805" width="182" height="56" as="geometry" />
        </mxCell>
        <mxCell id="W_C2Z8PSOMMcqS_Pn6WL-32" value="" style="shape=component;jettyWidth=8;jettyHeight=4;" vertex="1" parent="W_C2Z8PSOMMcqS_Pn6WL-31">
          <mxGeometry x="1" width="20" height="20" relative="1" as="geometry">
            <mxPoint x="-24" y="4" as="offset" />
          </mxGeometry>
        </mxCell>
      </root>
    </mxGraphModel>
  </diagram>
</mxfile>
